<?xml version="1.0" encoding="UTF-8"?>
<svg width="100" height="100" viewBox="0 0 100 100" fill="none" xmlns="http://www.w3.org/2000/svg">
  <!-- Cloud -->
  <path d="M78.0707 42.9293C76.2101 41.0686 73.6522 40 71 40H69.5454C67.4168 31.4625 59.6395 25 50.5 25C42.5369 25 35.5935 29.7458 32.5 36.5C32.5 36.5 32.25 37 32 37.5C28.8294 36.5589 25.4379 36.9636 22.5 38.5761C19.2488 40.3579 17 43.7149 17 47.5C17 48.513 17.1317 49.5048 17.3805 50.4489C18.1432 53.6651 20.2903 56.3454 23.1747 57.8791C25.1496 58.9551 27.4004 59.5 29.75 59.5H71C73.6522 59.5 76.2101 58.4314 78.0707 56.5707C79.9314 54.7101 81 52.1522 81 49.5C81 46.8478 79.9314 44.2899 78.0707 42.9293Z" fill="#A6A9AA"/>
  
  <!-- Raindrops -->
  <path d="M35 67L28 80" stroke="#4299E1" stroke-width="3" stroke-linecap="round"/>
  <path d="M45 67L38 80" stroke="#4299E1" stroke-width="3" stroke-linecap="round"/>
  <path d="M55 67L48 80" stroke="#4299E1" stroke-width="3" stroke-linecap="round"/>
  <path d="M65 67L58 80" stroke="#4299E1" stroke-width="3" stroke-linecap="round"/>
  <path d="M75 67L68 80" stroke="#4299E1" stroke-width="3" stroke-linecap="round"/>
</svg>